HIERARCHY
ROOT Hips
{
	OFFSET 0.000000 0.000000 0.000000
	CHANNELS 6 Xposition Yposition Zposition Xrotation Yrotation Zrotation
	JOINT LeftUpLeg_virtual
	{
		OFFSET 0.000000 0.000000 0.000000
		CHANNELS 3 Xrotation Yrotation Zrotation
		JOINT LeftUpLeg
		{
			OFFSET 13.026900 -6.336304 -1.092800
			CHANNELS 3 Xrotation Yrotation Zrotation
			JOINT LeftLeg
			{
				OFFSET 0.524474 -46.096886 9.782700
				CHANNELS 3 Xrotation Yrotation Zrotation
				JOINT LeftFoot
				{
					OFFSET -0.524474 -53.427422 -12.948200
					CHANNELS 3 Xrotation Yrotation Zrotation
					JOINT LeftToeBase
					{
						OFFSET 0.192200 -14.009700 16.364100
						CHANNELS 3 Xrotation Yrotation Zrotation
						JOINT LeftToe_End
						{
							OFFSET -1.784700 -0.561700 9.474800
							CHANNELS 3 Xrotation Yrotation Zrotation
							End Site
							{
								OFFSET 0 0 0
							}
						}
					}
				}
			}
		}
	}
	JOINT RightUpLeg_virtual
	{
		OFFSET 0.000000 0.000000 0.000000
		CHANNELS 3 Xrotation Yrotation Zrotation
		JOINT RightUpLeg
		{
			OFFSET -12.883000 -6.336304 -1.092800
			CHANNELS 3 Xrotation Yrotation Zrotation
			JOINT RightLeg
			{
				OFFSET -0.524587 -46.096825 9.782800
				CHANNELS 3 Xrotation Yrotation Zrotation
				JOINT RightFoot
				{
					OFFSET 0.524587 -53.427383 -12.948300
					CHANNELS 3 Xrotation Yrotation Zrotation
					JOINT RightToeBase
					{
						OFFSET -0.192200 -14.009700 16.364100
						CHANNELS 3 Xrotation Yrotation Zrotation
						JOINT RightToe_End
						{
							OFFSET 1.784700 -0.561700 9.474800
							CHANNELS 3 Xrotation Yrotation Zrotation
							End Site
							{
								OFFSET 0 0 0
							}
						}
					}
				}
			}
		}
	}
	JOINT Spine_virtual
	{
		OFFSET 0.000000 0.000000 0.000000
		CHANNELS 3 Xrotation Yrotation Zrotation
		JOINT Spine
		{
			OFFSET 0.072000 7.257294 -0.789700
			CHANNELS 3 Xrotation Yrotation Zrotation
			JOINT Spine1
			{
				OFFSET 0.000000 12.508769 -0.658067
				CHANNELS 3 Xrotation Yrotation Zrotation
				JOINT Spine1_split
				{
					OFFSET 0.000000 12.508769 -0.658067
					CHANNELS 3 Xrotation Yrotation Zrotation
					JOINT Spine2
					{
						OFFSET 0.000000 12.508769 -0.658067
						CHANNELS 3 Xrotation Yrotation Zrotation
						JOINT Neck_virtual
						{
							OFFSET 0.000000 0.000000 0.000000
							CHANNELS 3 Xrotation Yrotation Zrotation
							JOINT Neck
							{
								OFFSET 0.000000 14.033295 7.520400
								CHANNELS 3 Xrotation Yrotation Zrotation
								JOINT Head
								{
									OFFSET 0.000000 8.198502 5.703100
									CHANNELS 3 Xrotation Yrotation Zrotation
									JOINT HeadTop_End
									{
										OFFSET 0.000000 17.760803 13.332701
										CHANNELS 3 Xrotation Yrotation Zrotation
										End Site
										{
											OFFSET 0 0 0
										}
									}
								}
							}
						}
						JOINT LeftShoulder_virtual
						{
							OFFSET 0.000000 0.000000 0.000000
							CHANNELS 3 Xrotation Yrotation Zrotation
							JOINT LeftShoulder
							{
								OFFSET 6.292450 5.785301 -0.669000
								CHANNELS 3 Xrotation Yrotation Zrotation
								JOINT LeftShoulder_split
								{
									OFFSET 6.292450 5.785301 -0.669000
									CHANNELS 3 Xrotation Yrotation Zrotation
									JOINT LeftArm
									{
										OFFSET 13.907140 -6.093903 1.965100
										CHANNELS 3 Xrotation Yrotation Zrotation
										JOINT LeftForeArm
										{
											OFFSET 34.140198 0.000000 0.000000
											CHANNELS 3 Xrotation Yrotation Zrotation
											JOINT LeftHand
											{
												OFFSET 40.960209 0.000000 0.000000
												CHANNELS 3 Xrotation Yrotation Zrotation
												End Site
												{
													OFFSET 0 0 0
												}
											}
										}
									}
								}
							}
						}
						JOINT RightShoulder_virtual
						{
							OFFSET 0.000000 0.000000 0.000000
							CHANNELS 3 Xrotation Yrotation Zrotation
							JOINT RightShoulder
							{
								OFFSET -6.292450 5.785301 -0.669000
								CHANNELS 3 Xrotation Yrotation Zrotation
								JOINT RightShoulder_split
								{
									OFFSET -6.292450 5.785301 -0.669000
									CHANNELS 3 Xrotation Yrotation Zrotation
									JOINT RightArm
									{
										OFFSET -13.907140 -6.093903 1.965100
										CHANNELS 3 Xrotation Yrotation Zrotation
										JOINT RightForeArm
										{
											OFFSET -34.140198 0.000000 0.000000
											CHANNELS 3 Xrotation Yrotation Zrotation
											JOINT RightHand
											{
												OFFSET -40.960209 0.000000 0.000000
												CHANNELS 3 Xrotation Yrotation Zrotation
												End Site
												{
													OFFSET 0 0 0
												}
											}
										}
									}
								}
							}
						}
					}
				}
			}
		}
	}
}
MOTION
Frames: 6
Frame Time: 0.03333333
5.709057 97.305855 -6.823698 0.000000 0.000000 0.000000 -8.797357 8.998214 0.356045 -23.459360 -3.331231 13.084238 53.863568 -2.822099 1.160989 -16.251634 3.469135 -15.782638 -0.529501 -3.870133 1.139654 0.000000 0.000000 0.000000 -9.023085 7.753449 0.452044 -16.638641 -10.939551 -11.297699 52.709437 6.609826 -3.454792 -24.408130 -17.800661 16.145970 1.972120 4.852055 -11.353794 0.000000 0.000000 0.000000 -9.075539 12.436726 0.560212 13.687644 -1.263760 1.128888 6.446228 -3.551409 -0.475785 0.255354 -0.189445 0.163846 0.000000 0.000000 0.000000 8.395523 -1.908005 -0.310759 14.259493 11.437425 3.580891 -36.924392 -7.169344 5.579896 0.000000 0.000000 0.000000 7.011474 -3.144649 -0.462413 3.662431 -1.275113 -8.137820 9.397236 -6.269861 -6.414932 -22.683683 -17.446738 -43.597712 70.241966 -53.514235 62.537274 0.000000 0.000000 0.000000 7.144800 -3.551293 -0.804748 3.483072 -11.714059 18.536450 6.173866 -0.130532 7.503134 -25.774537 20.298455 66.251182 97.011923 85.538270 -101.646418 0.000000 0.000000 0.000000 
5.554030 97.326378 -6.656610 0.000000 0.000000 0.000000 -8.965136 8.789016 0.236836 -23.494259 -3.056663 13.171080 53.918572 -2.853272 1.241859 -16.562628 3.348476 -15.763049 -0.569380 -3.880710 1.224240 0.000000 0.000000 0.000000 -9.185449 7.765441 0.330147 -16.725185 -11.202822 -11.354376 52.796573 6.608083 -3.369469 -24.359211 -17.763367 16.045214 2.410518 4.834467 -11.374756 0.000000 0.000000 0.000000 -9.229381 12.378219 0.404059 14.011681 -1.291573 1.039721 6.514854 -3.403904 -0.174814 0.183987 -0.079775 0.139363 0.000000 0.000000 0.000000 8.247068 -1.785062 -0.189443 13.877082 11.250163 3.663134 -36.900377 -7.946278 5.948567 0.000000 0.000000 0.000000 7.201498 -3.019098 -0.378827 4.008037 -1.021647 -8.122255 9.405363 -4.714583 -7.217200 -23.775733 -18.154590 -46.909084 67.473178 -51.895733 59.928367 0.000000 0.000000 0.000000 7.291241 -3.358468 -0.657550 3.134576 -11.814486 17.748861 5.753652 -2.289120 8.176562 -25.009783 21.244257 65.419634 64.352075 85.558201 -68.979283 0.000000 0.000000 0.000000 
5.466890 97.438797 -6.428408 0.000000 0.000000 0.000000 -9.200171 8.691718 0.091142 -23.618661 -2.838651 13.170064 54.262308 -2.858120 1.456832 -16.774576 3.115868 -16.047938 -0.412653 -3.867047 1.306963 0.000000 0.000000 0.000000 -9.390311 7.855772 0.163214 -16.618955 -11.619734 -11.341535 52.695244 6.673257 -3.336806 -24.167868 -17.638072 16.136983 2.486059 4.837229 -11.327444 0.000000 0.000000 0.000000 -9.470992 12.291265 0.085398 14.473693 -1.354994 0.727527 6.682340 -3.103101 0.112395 0.130662 -0.113300 0.021616 0.000000 0.000000 0.000000 8.119420 -1.492593 -0.105929 13.138502 10.947721 3.760097 -36.548090 -9.756321 6.213722 0.000000 0.000000 0.000000 7.406913 -2.763257 -0.338930 4.075442 -0.877376 -7.794083 8.748035 -3.769928 -6.396539 -23.520786 -18.928850 -49.871084 62.519167 -51.101293 55.650636 0.000000 0.000000 0.000000 7.553674 -2.981471 -0.479438 2.762996 -11.439418 16.480937 3.726757 -2.968600 7.634059 -22.848608 22.052051 64.915607 37.286457 83.494008 -42.168850 0.000000 0.000000 0.000000 
5.472513 97.676620 -6.191320 0.000000 0.000000 0.000000 -9.464072 8.845374 0.024299 -23.663054 -2.725871 12.995018 54.536626 -2.737180 1.747354 -16.802732 2.887992 -16.432638 -0.271383 -3.836222 1.387084 0.000000 0.000000 0.000000 -9.539984 8.012439 0.045630 -16.172030 -12.124681 -11.223603 52.391280 6.739253 -3.354406 -24.063986 -17.484417 16.156150 2.293889 4.852651 -11.197743 0.000000 0.000000 0.000000 -9.782679 12.291630 -0.269553 14.947227 -1.511260 0.255603 6.864500 -2.709834 0.333781 0.131912 -0.274210 -0.034221 0.000000 0.000000 0.000000 8.036233 -1.097622 -0.058568 12.246504 10.532835 3.810169 -35.757075 -12.226590 6.197935 0.000000 0.000000 0.000000 7.526841 -2.405306 -0.308443 3.880663 -0.660371 -6.822664 7.985274 -3.620819 -4.387824 -21.876415 -20.057038 -51.185762 57.232460 -51.895791 51.313712 0.000000 0.000000 0.000000 7.829501 -2.517629 -0.322584 2.461700 -10.676781 14.757891 1.499397 -2.312702 6.451524 -18.810015 22.754357 63.913919 31.443824 82.066991 -36.411667 0.000000 0.000000 0.000000 
5.551295 98.124466 -5.961542 0.000000 0.000000 0.000000 -9.738974 9.208873 0.096158 -23.466387 -2.722507 12.586858 54.377072 -2.469437 2.055878 -16.551956 2.777839 -16.753315 -0.287434 -3.794094 1.452281 0.000000 0.000000 0.000000 -9.633377 8.248218 0.063465 -15.375833 -12.644062 -11.016838 51.799625 6.773880 -3.417836 -24.079258 -17.338732 15.962883 2.058203 4.866392 -10.998595 0.000000 0.000000 0.000000 -10.138691 12.399276 -0.539174 15.300600 -1.858118 -0.278316 6.958808 -2.291143 0.453672 0.118574 -0.523516 -0.020294 0.000000 0.000000 0.000000 8.076425 -0.675580 -0.033061 11.522510 10.045257 3.782421 -34.491721 -14.822178 5.752790 0.000000 0.000000 0.000000 7.524748 -2.003091 -0.257075 3.536343 -0.166711 -5.119839 7.244607 -3.270433 -2.891208 -18.427845 -21.783937 -49.894853 52.331168 -54.828623 47.573528 0.000000 0.000000 0.000000 8.051220 -2.072251 -0.189139 2.251124 -9.653357 12.634744 -0.231440 -1.156244 4.930978 -12.619213 23.558548 61.432654 33.856025 82.063405 -38.506971 0.000000 0.000000 0.000000 
5.661047 98.821213 -5.742632 0.000000 0.000000 0.000000 -9.964282 9.634582 0.354192 -22.910365 -2.799379 11.957881 53.558085 -2.067097 2.321976 -16.100689 2.832181 -16.811607 -0.384856 -3.754125 1.462059 0.000000 0.000000 0.000000 -9.686846 8.581955 0.260464 -14.421898 -13.120086 -10.793908 50.942741 6.806169 -3.502482 -24.008602 -17.192472 15.698143 1.844939 4.884608 -10.761275 0.000000 0.000000 0.000000 -10.435639 12.606462 -0.588276 15.370535 -2.445199 -0.758918 6.925547 -1.911908 0.499699 0.077169 -0.741088 0.012663 0.000000 0.000000 0.000000 8.193615 -0.270400 0.006276 11.143424 9.534511 3.684838 -32.809756 -17.297673 4.693650 0.000000 0.000000 0.000000 7.412297 -1.597882 -0.134249 3.189059 0.513096 -2.795285 6.865784 -3.213063 -2.171839 -12.843668 -23.735486 -45.224049 47.860160 -59.648711 44.276903 0.000000 0.000000 0.000000 8.101841 -1.715533 -0.090524 2.126309 -8.487850 10.259884 -1.238454 0.070604 3.320564 -4.778505 23.745566 56.390096 35.788463 82.328006 -39.759685 0.000000 0.000000 0.000000 
